<svg id="Laag_1" data-name="Laag 1" xmlns="http://www.w3.org/2000/svg" viewBox="0 0 94.34 97.36"><path d="M90.12,98.62c-1-16.41-8.32-28.92-24.37-33.73-15.44-4.62-30.55-3.38-42.67,9.33-6.5,6.83-9.22,15.09-9.1,24.4H10.74c-3.62-25.13,4-34.1,25.3-41.95,21.82-8.07,45.87,1.17,56.21,19.75,2.46,4.43,4,9.38,6,14.09Q100.4,100.8,90.12,98.62Z" transform="translate(-4.26 -1.64)"/><path d="M76.27,26.41A24.88,24.88,0,0,1,51.88,51.56C39,51.84,27,40,26.87,26.78,26.72,13.92,38.81,1.61,51.56,1.64A24.88,24.88,0,0,1,76.27,26.41Zm-8,0C68.26,17.67,60.38,10,51.49,10s-16.13,7.76-16,17A16.45,16.45,0,0,0,51.67,42.84C60.54,42.93,68.37,35.2,68.32,26.4Z" transform="translate(-4.26 -1.64)"/><path d="M90.45,98.62c-1.23-22-14.84-35.29-36.51-35.74-24.61-.51-38.5,11.59-41,35.74q-10.47,2.19-8.25-8.11c4.08-12.33,9.9-23.26,22.1-30C50,47.78,75.18,53.42,93.75,75.9c0,6.76-.25,13.54.11,20.28C94,99.52,92.07,98.5,90.45,98.62Z" transform="translate(-4.26 -1.64)"/><path d="M77.32,26.79C77.15,40,64.94,51.85,51.83,51.56A25.09,25.09,0,0,1,27,26.39,25.1,25.1,0,0,1,52.19,1.64C65.2,1.62,77.48,13.91,77.32,26.79ZM68.55,27C68.66,17.77,61.21,10,52.23,10S35.15,17.71,35.1,26.42s7.94,16.52,17,16.42C61,42.74,68.44,35.53,68.55,27Z" transform="translate(-4.26 -1.64)"/></svg>