<svg id="Laag_1" data-name="Laag 1" xmlns="http://www.w3.org/2000/svg" viewBox="0 0 94.49 86.63"><defs><style>.cls-1{fill:#fff;}</style></defs><path d="M3.38,5.25c4.58,0,9.17.16,13.73-.13,4.1-.26,5.75,1.55,6.61,5.4,3,13.26,6.39,26.42,9.29,39.69,1,4.44,2.72,6.25,7.51,6.13,12.9-.33,25.82-.21,38.73-.06,3.57,0,5.34-1.2,6.11-4.74C86.73,45.31,88.3,39.11,90.12,33c1.22-4.11-.1-5.14-4.1-5-8.33.23-16.67.07-25,.05-2.32,0-4.73.08-4.8-3.36s2.2-3.59,4.61-3.6c10.78,0,21.57.06,32.36,0,3.69,0,4.87,1.69,4.67,5.15-.45,7.76-3.1,15-4.87,22.51-3.47,14.58-3.57,14.55-18.49,14.55-12.92,0-25.84-.2-38.74.1-5.09.12-7.19-1.75-8.23-6.65C24.8,43.87,21.38,31.21,18.66,18.4c-1-4.75-3.06-6.83-7.93-6.24a58.17,58.17,0,0,1-7.35,0Z" transform="translate(-3.38 -5.09)"/><path d="M36.51,68.44A11.88,11.88,0,0,1,48.27,79.87c.1,6-5.25,11.58-11.46,11.84C31.06,92,25.14,86.18,25,80.19S30.39,68.59,36.51,68.44Z" transform="translate(-3.38 -5.09)"/><path d="M90.86,80.27c-.11,6.21-5.62,11.6-11.69,11.46A11.49,11.49,0,0,1,68,79.93,11.29,11.29,0,0,1,79.5,68.53,11.84,11.84,0,0,1,90.86,80.27Z" transform="translate(-3.38 -5.09)"/><circle class="cls-1" cx="33.62" cy="74.91" r="7"/><circle class="cls-1" cx="75.62" cy="74.91" r="7"/></svg>