<svg id="Laag_1" data-name="Laag 1" xmlns="http://www.w3.org/2000/svg" viewBox="0 0 95.32 48.91"><path d="M98.56,63.08c-3.16.05-6.33.21-9.48.09-2-.07-2.87.48-3.14,2.67a8.69,8.69,0,0,1-7.74,7.59,9.16,9.16,0,0,1-9.14-5.1,4.22,4.22,0,0,1-.61-1.83c.21-3-1.44-3.47-4-3.32-3.06.17-6.14.09-9.2,0-1.59,0-2.23.55-2.56,2.17-1,5.17-4.65,8.29-9.09,8.15-4.67-.15-7.81-3.11-8.76-8.47A2.07,2.07,0,0,0,33,63.13c-3.71-.9-5.61-3-5.86-6.8-.14-2.13-1-2.72-2.94-2.6-1.48.09-3,0-4.46,0-.84,0-1.44-.41-1.46-1.34S18.87,51,19.68,51c1.67-.08,3.34-.14,5-.1,2.4.06,2.32-1.54,2.35-3.19s-.21-2.9-2.37-2.85c-3.62.1-7.26.11-10.88,0-1.29,0-3.59.93-3.59-1.29S12.58,42.05,14,42c3.43-.13,6.88-.13,10.32,0,2.33.07,2.75-1.1,2.78-3.1s-.54-3-2.83-3c-5.76.12-11.53.1-17.3,0-1.34,0-3.73,1-3.7-1.49C3.26,32.22,5.52,33,6.83,33c5.68-.1,11.35-.09,17,0,1.9,0,3-.32,3.42-2.56.68-3.7,3.36-5.76,7.15-5.78q18.42-.11,36.83,0a6.89,6.89,0,0,1,7.09,5.21c.51,1.76,1.52,2.32,3,2,5.9-1.15,9.34,1.69,11.91,6.63a78.05,78.05,0,0,0,5.28,7.85ZM52.9,27.55c-5.85,0-11.7,0-17.55,0C31.42,27.59,30,29,30,33c0,7.32,0,14.63,0,22,0,2.18.38,4.14,2.6,5.07s3.61-.24,5.11-1.73c3.41-3.35,8.56-3.64,11.78-.34a7.62,7.62,0,0,0,6.67,2.41c1.29-.1,2.6,0,3.9,0,4.63,0,9.56,1,13-3.49a.48.48,0,0,1,.24-.14c1.94-.58,2.39-2,2.37-3.85-.08-6.57,0-13.15,0-19.73,0-4.27-1.32-5.54-5.73-5.56C64.23,27.53,58.57,27.55,52.9,27.55ZM78.61,45.64h0v2.51c0,4-.87,7.88,4.38,10.07,2.16.9,4,2.28,6.48,2.12a38.86,38.86,0,0,1,4.18,0c1.85.07,2.6-.68,2.74-2.59.43-5.8,0-11.28-4.33-15.77a8,8,0,0,1-1.55-2.3C88.85,35.9,86,34.54,82,35.21a4.57,4.57,0,0,1-1.11,0c-1.65-.07-2.35.71-2.32,2.35C78.65,40.27,78.61,43,78.61,45.64ZM37.81,64.58a6.08,6.08,0,0,0,6,6.1,6.45,6.45,0,0,0,6-6.14,6,6,0,0,0-5.91-5.83A5.86,5.86,0,0,0,37.81,64.58Zm33.47.21a6,6,0,0,0,6.11,5.89,6.33,6.33,0,0,0,5.81-6,6,6,0,0,0-6.07-5.94A5.82,5.82,0,0,0,71.28,64.79Z" transform="translate(-3.24 -24.61)"/></svg>