<?xml version="1.0" encoding="utf-8"?>
<!-- Generator: Adobe Illustrator 25.0.1, SVG Export Plug-In . SVG Version: 6.00 Build 0)  -->
<svg version="1.1" id="Laag_1" xmlns="http://www.w3.org/2000/svg" xmlns:xlink="http://www.w3.org/1999/xlink" x="0px" y="0px"
	 viewBox="0 0 1440 1440" style="enable-background:new 0 0 1440 1440;" xml:space="preserve">
<style type="text/css">
	.st0{stroke:#000000;stroke-miterlimit:10;}
</style>
<path class="st0" d="M1263.56,538.27c6.86-169.53-132.39-310.39-301.98-305.43c-101.98,2.98-190.9,58-241.16,139.42
	c-0.01,0.01-0.02,0.01-0.03,0c-61.73-100-181.77-160.17-312.72-133.03c-100.46,20.83-201.64,120.79-223.48,221.03
	c-15.88,72.9-4.62,142.53,25.57,200.77l-0.68,0.77l4.48,6.29c0,0,0,0,0,0c10.73,19.38,23.58,37.42,38.25,53.8c0,0,0,0,0,0
	l194.93,274.17l259.42,365.1l10.99,15.47c2.22,3.13,6.87,3.13,9.09,0l10.13-14.25l260.28-366.32l224.18-314.9c0,0,0-0.01,0-0.01
	l-0.22-1.66c0,0,0-0.01,0-0.01C1246.03,638.09,1261.47,589.9,1263.56,538.27z M1136,601.11c-1.6,39.5-13.41,76.38-32.86,108.06
	c0,0,0,0.01,0,0.01l0.17,1.27c0,0,0,0.01,0,0.01L931.77,951.4l-199.16,280.29l-7.75,10.91c-1.7,2.39-5.26,2.39-6.96,0l-8.41-11.84
	L511,951.4L361.85,741.62c0,0,0,0,0,0c-11.22-12.53-21.06-26.34-29.27-41.16c0,0,0,0,0,0l-3.42-4.82l0.52-0.59
	c-23.09-44.57-31.71-97.84-19.56-153.62c16.71-76.7,94.13-153.19,171-169.12c100.19-20.77,192.04,25.27,239.28,101.79
	c0.01,0.01,0.02,0.01,0.02,0c38.46-62.3,106.49-104.39,184.52-106.68C1034.7,363.62,1141.25,471.4,1136,601.11z"/>
</svg>
