<?xml version="1.0" encoding="utf-8"?>
<!-- Generator: Adobe Illustrator 25.0.1, SVG Export Plug-In . SVG Version: 6.00 Build 0)  -->
<svg version="1.1" id="Laag_1" xmlns="http://www.w3.org/2000/svg" xmlns:xlink="http://www.w3.org/1999/xlink" x="0px" y="0px"
	 viewBox="0 0 1440 1440" style="enable-background:new 0 0 1440 1440;" xml:space="preserve">
<style type="text/css">
	.st0{stroke:#000000;stroke-miterlimit:10;}
</style>
<g>
	<path class="st0" d="M289.04,766.79c7.48-1.21,14.83-3.92,21.62-8.27l232.29-148.57c26.57-16.99,34.33-52.31,17.34-78.88v0
		c-16.99-26.57-52.31-34.33-78.88-17.34l-107.96,69.05C428.1,444.9,562.66,347.37,720,347.37c173.38,0,319.09,118.41,360.7,278.77
		h121.91C1158.8,399.56,959.39,228.44,720,228.44c-217.15,0-401.41,140.81-466.46,336.1l-74.87-117.06
		c-16.99-26.57-52.31-34.33-78.88-17.34l0,0c-26.57,16.99-34.33,52.31-17.34,78.88l148.57,232.29
		C243.82,761.32,267.02,770.66,289.04,766.79z"/>
	<path class="st0" d="M1352.72,939.07l-148.57-232.29c-12.8-20.01-36-29.35-58.02-25.48c-7.48,1.21-14.83,3.92-21.62,8.27
		L892.22,838.13c-26.57,16.99-34.33,52.31-17.34,78.88l0,0c16.99,26.57,52.31,34.33,78.88,17.34l110.03-70.37
		c-56.31,134.31-189.03,228.65-343.79,228.65c-173.38,0-319.09-118.41-360.7-278.77H237.39
		c43.81,226.59,243.22,397.71,482.61,397.71c213.37,0,394.98-135.95,462.96-325.95l73.55,114.99
		c16.99,26.57,52.31,34.33,78.88,17.34l0,0C1361.95,1000.95,1369.71,965.64,1352.72,939.07z"/>
</g>
</svg>
