<svg id="Laag_1" data-name="Laag 1" xmlns="http://www.w3.org/2000/svg" viewBox="0 0 97.95 94.23"><path d="M1.05,9.5C4,4.49,8.39,2.84,14.12,2.88c23.61.19,47.22.1,70.83.06,3.45,0,6.8.2,9.74,2.26V9.5c-2.18-2.47-5-3.17-8.19-3.16-24.53,0-49,0-73.58,0-6.8,0-8.49,1.79-8.53,8.7-.06,9.3,0,18.61,0,27.92,0,3.61,1.32,7.17,5.09,6.94,7.32-.44,12.62,2.63,17.14,8.15,2.92-7.77,2.93-7.91,12.63-7.69,3,.07,8.74-1.28,8.56,1.23-.29,4.08-5.55,2.15-8.54,2-5.3-.21-8.61.69-8.4,7,.11,3.26-2,3.34-4.21,1.46A32.75,32.75,0,0,1,23,59c-3.24-3.71-7-5.73-12.17-5.32-4.64.36-7.45-2.9-9.77-6.5Z" transform="translate(-1.05 -2.88)"/><path d="M65,52.41A12,12,0,0,1,76.54,64.78a12,12,0,1,1-24-.88A12,12,0,0,1,65,52.41Zm8,11.85c0-4.92-3.36-8.34-8.36-8.39s-8.52,3.31-8.57,8.19,3.33,8.6,8.11,8.78A8.27,8.27,0,0,0,73,64.26Z" transform="translate(-1.05 -2.88)"/><path d="M64.85,85.23c-8.61-.92-15.52,1-18.5,10.07-.34,1-.84,2.19-2.21,1.7S43,95.28,43.3,94.25c1.42-5.38,4.69-9.45,9.94-11.11a36.22,36.22,0,0,1,22.69.06c5.21,1.73,8.39,5.91,9.83,11.25.28,1,.32,2.28-1.08,2.6-1.06.24-1.56-.65-1.84-1.53C79.94,86.52,73.22,84.23,64.85,85.23Z" transform="translate(-1.05 -2.88)"/><path d="M75.32,52.56c7.54,0,21.53,3.22,23.68-4.92V10C96.2,5,92,3.3,86.54,3.35,64,3.53,41.49,3.44,19,3.41c-3.29,0-5.41-1.35-8.22.71,0,1.44,1.08.72,1.08,2.15,2.08-2.47,2.59.52,5.67.53,23.39,0,46.79,0,70.19,0,6.49,0,8.1,1.78,8.14,8.69.06,9.31,0,18.62,0,27.92,0,3.62-1.26,7.17-4.86,6.94-7-.44-11.34-1.07-15.27-.46" transform="translate(-1.05 -2.88)"/><circle cx="31.15" cy="25.31" r="5.84"/><circle cx="50.62" cy="25.31" r="5.84"/><circle cx="70.09" cy="25.31" r="5.84"/></svg>