<svg id="Laag_1" data-name="Laag 1" xmlns="http://www.w3.org/2000/svg" viewBox="0 0 99 56.87"><path d="M.7,27.37c2.64-5.25,6.89-7.24,12.81-7.2q37.13.25,74.26,0c5.13,0,9.11,1.53,11.93,5.8V71.24C97,75.39,93.19,77.06,88.14,77q-37.68-.21-75.37,0c-5.7,0-9.63-2.17-12.07-7.18Zm62.05,46v0c8.76,0,17.53.07,26.29,0,5.51-.07,7.66-2.31,7.68-7.66q.06-17,0-34.08c0-5.17-2.26-7.57-7.37-7.59-17.88-.06-35.77-.27-53.64.19-3.5.09-6.75.76-10.43,0-4.49-.92-9.31-.29-14-.19s-7,2.44-7,6.89q-.09,17.73,0,35.47c0,4.35,2.26,6.73,6.61,6.9,4.78.18,9.58.07,14.37.12,1.81,0,3.28-.29,3.36-2.54a1.6,1.6,0,0,1,1.8-1.69,1.54,1.54,0,0,1,1.7,1.42c.2,2.82,2.16,2.82,4.26,2.82C45.22,73.34,54,73.36,62.75,73.36Z" transform="translate(-0.7 -20.17)"/><path d="M55.74,67c-1.86-.37-2.45-1.35-1.58-3,1.08-2.05,2.23-4.06,3.33-6.1l13-24.2c.22-.4.43-.81.66-1.22.62-1.1,1.35-1.93,2.78-1.15s.88,1.93.34,3Q68.88,44.44,63.47,54.55c-1.86,3.47-3.71,7-5.61,10.4C57.37,65.83,56.91,66.83,55.74,67Z" transform="translate(-0.7 -20.17)"/><path d="M59.81,39.11a7.72,7.72,0,0,1-7.31,7.83,7.89,7.89,0,0,1-8.25-7.69,8,8,0,0,1,7.58-7.69A7.77,7.77,0,0,1,59.81,39.11Zm-3.73.13c-.21-2.39-1.57-3.92-4-3.9a3.78,3.78,0,0,0-3.89,4.09A3.57,3.57,0,0,0,52,43.17C54.56,43.22,55.77,41.71,56.08,39.24Z" transform="translate(-0.7 -20.17)"/><path d="M68.72,58.86a7.77,7.77,0,0,1,15.53-.43,8,8,0,0,1-7.6,8A7.79,7.79,0,0,1,68.72,58.86Zm3.7-.07c.29,2.47,1.74,3.84,4.17,3.79a3.63,3.63,0,0,0,3.84-4,3.69,3.69,0,0,0-4.13-3.78C73.78,54.8,72.58,56.37,72.42,58.79Z" transform="translate(-0.7 -20.17)"/></svg>